<?xml version="1.0" standalone="no"?>
<!DOCTYPE svg PUBLIC "-//W3C//DTD SVG 20010904//EN"
 "http://www.w3.org/TR/2001/REC-SVG-20010904/DTD/svg10.dtd">
<svg version="1.0" xmlns="http://www.w3.org/2000/svg"
 width="64.000000pt" height="64.000000pt" viewBox="0 0 64.000000 64.000000"
 preserveAspectRatio="xMidYMid meet">

<g transform="translate(0.000000,64.000000) scale(0.100000,-0.100000)"
fill="#000000" stroke="none">
<path d="M264 615 c-13 -10 -44 -14 -96 -15 -56 0 -81 -4 -92 -16 -24 -23 -24
-525 0 -548 23 -24 465 -24 488 0 24 23 24 525 0 548 -11 12 -36 16 -92 16
-52 1 -83 5 -96 15 -11 8 -36 15 -56 15 -20 0 -45 -7 -56 -15z m123 -21 c21
-16 33 -33 33 -50 0 -24 -1 -24 -100 -24 -99 0 -100 0 -100 24 0 34 55 76 99
76 21 0 47 -10 68 -26z m-177 -18 c0 -21 -17 -36 -39 -36 -52 0 -52 0 -49
-236 l3 -219 150 -3 150 -2 48 48 47 48 -2 180 -3 179 -35 3 c-32 3 -49 15
-50 35 0 4 29 7 65 7 l65 0 0 -270 0 -270 -240 0 -240 0 0 270 0 270 65 0 c36
0 65 -2 65 -4z m110 -68 c52 0 114 3 138 7 l42 7 0 -171 0 -171 -28 0 c-15 0
-33 -5 -40 -12 -7 -7 -12 -25 -12 -40 l0 -28 -140 0 -140 0 0 211 0 211 43 -7
c23 -4 85 -7 137 -7z m170 -351 c0 -2 -11 -14 -25 -27 l-25 -23 0 26 c0 22 5
27 25 27 14 0 25 -1 25 -3z"/>
<path d="M304 589 c-10 -17 13 -36 27 -22 12 12 4 33 -11 33 -5 0 -12 -5 -16
-11z"/>
<path d="M160 460 c0 -5 5 -10 10 -10 6 0 10 5 10 10 0 6 -4 10 -10 10 -5 0
-10 -4 -10 -10z"/>
<path d="M210 460 c0 -5 5 -10 10 -10 6 0 10 5 10 10 0 6 -4 10 -10 10 -5 0
-10 -4 -10 -10z"/>
<path d="M260 460 c0 -5 5 -10 10 -10 6 0 10 5 10 10 0 6 -4 10 -10 10 -5 0
-10 -4 -10 -10z"/>
<path d="M310 460 c0 -5 5 -10 10 -10 6 0 10 5 10 10 0 6 -4 10 -10 10 -5 0
-10 -4 -10 -10z"/>
<path d="M360 460 c0 -5 5 -10 10 -10 6 0 10 5 10 10 0 6 -4 10 -10 10 -5 0
-10 -4 -10 -10z"/>
<path d="M410 460 c0 -5 5 -10 10 -10 6 0 10 5 10 10 0 6 -4 10 -10 10 -5 0
-10 -4 -10 -10z"/>
<path d="M460 460 c0 -5 5 -10 10 -10 6 0 10 5 10 10 0 6 -4 10 -10 10 -5 0
-10 -4 -10 -10z"/>
<path d="M294 403 c-12 -2 -34 -17 -49 -33 -63 -66 -16 -173 75 -173 92 0 139
110 74 173 -30 29 -63 40 -100 33z m91 -38 c19 -18 25 -35 25 -65 0 -56 -34
-90 -90 -90 -30 0 -47 6 -65 25 -19 18 -25 35 -25 65 0 56 34 90 90 90 30 0
47 -6 65 -25z"/>
</g>
</svg>
